<?xml version="1.0" encoding="UTF-8" standalone="no"?>
<!-- Created with Inkscape (http://www.inkscape.org/) -->

<svg
   xmlns:dc="http://purl.org/dc/elements/1.1/"
   xmlns:cc="http://creativecommons.org/ns#"
   xmlns:rdf="http://www.w3.org/1999/02/22-rdf-syntax-ns#"
   xmlns:svg="http://www.w3.org/2000/svg"
   xmlns="http://www.w3.org/2000/svg"
   xmlns:sodipodi="http://sodipodi.sourceforge.net/DTD/sodipodi-0.dtd"
   xmlns:inkscape="http://www.inkscape.org/namespaces/inkscape"
   width="210mm"
   height="297mm"
   viewBox="0 0 210 297"
   version="1.1"
   id="svg8"
   inkscape:export-filename="/home/tuyen/image1.png"
   inkscape:export-xdpi="150"
   inkscape:export-ydpi="150"
   inkscape:version="0.92.4 (33fec40, 2019-01-16)"
   sodipodi:docname="losfizio.svg">
  <defs
     id="defs2" />
  <sodipodi:namedview
     id="base"
     pagecolor="#ffffff"
     bordercolor="#666666"
     borderopacity="1.0"
     inkscape:pageopacity="0.0"
     inkscape:pageshadow="2"
     inkscape:zoom="0.52881091"
     inkscape:cx="805.39428"
     inkscape:cy="576.06764"
     inkscape:document-units="mm"
     inkscape:current-layer="layer1"
     showgrid="false"
     showguides="true"
     inkscape:guide-bbox="true"
     inkscape:window-width="1366"
     inkscape:window-height="713"
     inkscape:window-x="0"
     inkscape:window-y="27"
     inkscape:window-maximized="1">
    <sodipodi:guide
       position="65.588023,129.22351"
       orientation="-0.034899497,0.99939083"
       id="guide872"
       inkscape:locked="false"
       inkscape:label=""
       inkscape:color="rgb(0,0,255)" />
    <sodipodi:guide
       position="84.681931,131.21321"
       orientation="-0.98768834,0.15643447"
       id="guide877"
       inkscape:locked="false"
       inkscape:label=""
       inkscape:color="rgb(0,0,255)" />
    <sodipodi:guide
       position="72.17352,168.05"
       orientation="-0.034899497,0.99939083"
       id="guide984"
       inkscape:locked="false"
       inkscape:label=""
       inkscape:color="rgb(0,0,255)" />
    <sodipodi:guide
       position="143.34637,191.62883"
       orientation="-0.98768834,0.15643447"
       id="guide986"
       inkscape:locked="false"
       inkscape:label=""
       inkscape:color="rgb(0,0,255)" />
    <sodipodi:guide
       position="153.5454,177.957"
       orientation="-0.98768834,0.15643447"
       id="guide988"
       inkscape:locked="false"
       inkscape:label=""
       inkscape:color="rgb(0,0,255)" />
    <sodipodi:guide
       position="63.624838,253.70884"
       orientation="-0.034899497,0.99939083"
       id="guide990"
       inkscape:locked="false"
       inkscape:label=""
       inkscape:color="rgb(0,0,255)" />
    <sodipodi:guide
       position="155.10428,111.82518"
       orientation="-0.95630476,0.2923717"
       id="guide992"
       inkscape:locked="false"
       inkscape:label=""
       inkscape:color="rgb(0,0,255)" />
    <sodipodi:guide
       position="88.536259,184.05989"
       orientation="-0.034899497,0.99939083"
       id="guide1018"
       inkscape:locked="false"
       inkscape:label=""
       inkscape:color="rgb(0,0,255)" />
    <sodipodi:guide
       position="85.307352,59.164776"
       orientation="-0.034899497,0.99939083"
       id="guide1089"
       inkscape:locked="false"
       inkscape:label=""
       inkscape:color="rgb(0,0,255)" />
    <sodipodi:guide
       position="147.88474,57.314181"
       orientation="-0.95630476,0.2923717"
       id="guide1091"
       inkscape:locked="false"
       inkscape:label=""
       inkscape:color="rgb(0,0,255)" />
  </sodipodi:namedview>
  <metadata
     id="metadata5">
    <rdf:RDF>
      <cc:Work
         rdf:about="">
        <dc:format>image/svg+xml</dc:format>
        <dc:type
           rdf:resource="http://purl.org/dc/dcmitype/StillImage" />
        <dc:title></dc:title>
      </cc:Work>
    </rdf:RDF>
  </metadata>
  <g
     inkscape:label="Calque 1"
     inkscape:groupmode="layer"
     id="layer1">
    <rect
       style="opacity:1;fill:#000000;fill-opacity:1;fill-rule:nonzero;stroke:#020202;stroke-width:0.86500001;stroke-linecap:round;stroke-linejoin:miter;stroke-miterlimit:4;stroke-dasharray:none;stroke-opacity:1"
       id="rect815"
       width="209.99936"
       height="296.37576"
       x="-0.14025922"
       y="0.09575855" />
    <g
       aria-label="L"
       style="font-style:normal;font-weight:normal;font-size:15.62663174px;line-height:1.25;font-family:sans-serif;letter-spacing:0px;word-spacing:0px;fill:#ededed;fill-opacity:1;stroke:none;stroke-width:0.26458332"
       id="text870" />
    <text
       id="text925"
       y="100.52074"
       x="80.384125"
       style="font-style:normal;font-weight:normal;font-size:49.36306381px;line-height:1.25;font-family:sans-serif;letter-spacing:0px;word-spacing:0px;fill:#ffffff;fill-opacity:1;stroke:none;stroke-width:0.1;stroke-miterlimit:4;stroke-dasharray:none"
       xml:space="preserve"
       transform="scale(0.9698386,1.0310994)"><tspan
         style="font-style:normal;font-variant:normal;font-weight:normal;font-stretch:normal;font-size:52.91666794px;line-height:1.25;font-family:Airin;-inkscape-font-specification:Airin;fill:#ffffff;fill-opacity:1;stroke-width:0.1;stroke-miterlimit:4;stroke-dasharray:none"
         y="100.52074"
         x="80.384125"
         id="tspan923"
         sodipodi:role="line">Sfizio</tspan></text>
    <path
       sodipodi:nodetypes="ccccc"
       inkscape:connector-curvature="0"
       id="path927"
       d="M 147.88855,79.139205 159.74827,39.934456 63.624838,43.29116 c 8.444819,31.964503 -12.073532,45.001983 -9.51387,86.16693 l 9.607368,-0.21283"
       style="opacity:1;fill:none;fill-opacity:1;fill-rule:nonzero;stroke:#fbfbfb;stroke-width:2.0999999;stroke-linecap:round;stroke-linejoin:miter;stroke-miterlimit:4;stroke-dasharray:none;stroke-dashoffset:0;stroke-opacity:1" />
    <text
       transform="matrix(0.96851966,-0.05375691,0.05056305,1.0296971,0,0)"
       id="text931"
       y="115.44773"
       x="59.305634"
       style="font-style:normal;font-weight:normal;font-size:32.90871048px;line-height:1.25;font-family:sans-serif;letter-spacing:0px;word-spacing:0px;fill:#ffffff;fill-opacity:1;stroke:none;stroke-width:0.26458338"
       xml:space="preserve"><tspan
         style="font-style:normal;font-variant:normal;font-weight:normal;font-stretch:normal;font-size:45.86111069px;font-family:Airin;-inkscape-font-specification:Airin;fill:#ffffff;fill-opacity:1;stroke-width:0.26458338"
         y="115.44773"
         x="59.305634"
         id="tspan929"
         sodipodi:role="line">lo</tspan></text>
    <text
       xml:space="preserve"
       style="font-style:normal;font-weight:normal;font-size:7.98374271px;line-height:1.25;font-family:sans-serif;letter-spacing:0px;word-spacing:0px;fill:#ffffff;fill-opacity:1;stroke:none;stroke-width:0.26458338;stroke-opacity:1;"
       x="68.798416"
       y="127.99603"
       id="text935"
       transform="matrix(0.96931253,-0.03395696,0.03193946,1.0305401,0,0)"><tspan
         sodipodi:role="line"
         id="tspan933"
         x="68.798416"
         y="127.99603"
         style="font-style:normal;font-variant:normal;font-weight:bold;font-stretch:normal;font-family:'Tlwg Mono';-inkscape-font-specification:'Tlwg Mono Bold';fill:#ffffff;fill-opacity:1;stroke-width:0.26458338;stroke:none;stroke-opacity:1;"><tspan
   id="tspan943"
   style="fill:#ffffff;fill-opacity:1;stroke-width:0.26458338;stroke:none;stroke-opacity:1;">P I Z</tspan> Z E R <tspan
   style="fill:#ffffff;fill-opacity:1;stroke:none;stroke-opacity:1;"
   id="tspan1000">I A...</tspan></tspan></text>
    <path
       inkscape:connector-curvature="0"
       id="path1145"
       d="m 162.66344,162.91808 -14.83327,47.85607"
       style="fill:none;stroke:#820000;stroke-width:1.70000005;stroke-linecap:round;stroke-linejoin:miter;stroke-miterlimit:4;stroke-dasharray:none;stroke-opacity:1"
       sodipodi:nodetypes="cc" />
    <text
       xml:space="preserve"
       style="font-style:normal;font-weight:normal;font-size:38.80555725px;line-height:1.25;font-family:sans-serif;letter-spacing:0px;word-spacing:0px;fill:#ffffff;fill-opacity:1;stroke:none;stroke-width:0.26458338"
       x="64.254883"
       y="236.16919"
       id="text1068"
       transform="matrix(0.96851966,-0.05375691,0.05056305,1.0296971,0,0)"><tspan
         sodipodi:role="line"
         id="tspan1066"
         x="64.254883"
         y="236.16919"
         style="font-style:normal;font-variant:normal;font-weight:normal;font-stretch:normal;font-size:35.27777863px;font-family:Airin;-inkscape-font-specification:Airin;fill:#ffffff;fill-opacity:1;stroke-width:0.26458338">lo</tspan></text>
    <text
       transform="matrix(0.96931253,-0.03395696,0.03193946,1.0305401,0,0)"
       id="text1076"
       y="250.08162"
       x="66.253471"
       style="font-style:normal;font-weight:normal;font-size:7.05555534px;line-height:1.25;font-family:sans-serif;letter-spacing:0px;word-spacing:0px;fill:#ffffff;fill-opacity:1;stroke:none;stroke-width:0.26458338;"
       xml:space="preserve"><tspan
         style="font-style:normal;font-variant:normal;font-weight:bold;font-stretch:normal;font-size:7.05555534px;font-family:'Tlwg Mono';-inkscape-font-specification:'Tlwg Mono Bold';fill:#ffffff;fill-opacity:1;stroke-width:0.26458338;"
         y="250.08162"
         x="66.253471"
         id="tspan1074"
         sodipodi:role="line"><tspan
   style="font-size:7.05555534px;fill:#ffffff;fill-opacity:1;stroke-width:0.26458338;"
   id="tspan1070">P I Z</tspan> Z E R <tspan
   id="tspan1072"
   style="font-size:7.05555534px;fill:#ffffff;fill-opacity:1;">I A...</tspan></tspan></text>
    <path
       style="fill:none;stroke:#ffffff;stroke-width:1.70000005;stroke-linecap:round;stroke-linejoin:miter;stroke-miterlimit:4;stroke-dasharray:none;stroke-opacity:1"
       d="m 160.99104,164.3612 -14.11288,46.16115"
       id="path1093"
       inkscape:connector-curvature="0" />
    <path
       style="fill:none;stroke:#025500;stroke-width:1;stroke-linecap:round;stroke-linejoin:miter;stroke-miterlimit:4;stroke-dasharray:none;stroke-opacity:1"
       d="m 160.05827,164.31161 -13.80331,45.54202"
       id="path1147"
       inkscape:connector-curvature="0"
       sodipodi:nodetypes="cc" />
    <path
       style="fill:#ffffff;fill-opacity:1;stroke:none;stroke-width:0.05;stroke-linecap:butt;stroke-linejoin:miter;stroke-miterlimit:4;stroke-dasharray:none;stroke-opacity:1"
       d="m 161.18004,166.70177 c 0,0 -80.06429,2.73019 -92.736229,3.24555 6.040015,35.63417 -11.932474,41.49127 -10.21404,81.69856 7.503236,-0.19114 9.589648,-0.17647 9.589648,-0.17647 l 0.157266,4.4572 -14.093653,0.30993 c -2.483633,-49.75843 19.119309,-53.29929 8.762542,-90.60451 l 100.031756,-3.55682 z"
       id="path1108"
       inkscape:connector-curvature="0"
       sodipodi:nodetypes="ccccccccc" />
    <text
       transform="scale(0.9698386,1.0310994)"
       xml:space="preserve"
       style="font-style:normal;font-weight:normal;font-size:42.33333206px;line-height:1.25;font-family:sans-serif;letter-spacing:0px;word-spacing:0px;fill:#ffffff;fill-opacity:1;stroke:none;stroke-width:0.1;stroke-miterlimit:4;stroke-dasharray:none"
       x="93.534576"
       y="223.31015"
       id="text1062"><tspan
         sodipodi:role="line"
         id="tspan1060"
         x="93.534576"
         y="223.31015"
         style="font-style:normal;font-variant:normal;font-weight:normal;font-stretch:normal;font-size:42.33333206px;line-height:1.25;font-family:Airin;-inkscape-font-specification:Airin;fill:#ffffff;fill-opacity:1;stroke-width:0.1;stroke-miterlimit:4;stroke-dasharray:none">Sfizio</tspan></text>
    <path
       style="opacity:1;fill:#00870b;fill-opacity:1;fill-rule:nonzero;stroke:none;stroke-width:0.18897638;stroke-linecap:square;stroke-linejoin:miter;stroke-miterlimit:4;stroke-dasharray:none;stroke-dashoffset:0;stroke-opacity:1;paint-order:fill markers stroke"
       d="M 522.81836 462.61523 L 516.50195 462.83789 C 515.19551 462.88366 514.55772 463.42439 514.58984 464.46094 C 514.62197 465.49748 515.29121 465.99303 516.59766 465.94727 L 518.44141 465.88281 L 517.25586 469.31641 L 520.43945 469.20312 L 521.2793 466.81055 L 522.25391 469.13672 L 525.53516 469.01953 L 522.81836 462.61523 z M 490.58008 463.74609 L 481.74805 464.05469 C 480.4611 464.09977 479.83311 464.64119 479.86523 465.67773 C 479.89736 466.71428 480.5568 467.20915 481.84375 467.16406 L 484.79883 467.06055 L 484.9043 470.47852 L 487.82812 470.375 L 487.72266 466.95898 L 490.67773 466.85547 C 491.96468 466.81038 492.59072 466.26897 492.55859 465.23242 C 492.52647 464.19588 491.86702 463.70101 490.58008 463.74609 z M 451.14648 465.12695 L 444.625 465.35547 C 443.33805 465.40055 442.71006 465.94197 442.74219 466.97852 C 442.77431 468.01506 443.43376 468.50993 444.7207 468.46484 L 445.16016 468.44922 L 445.26758 471.9043 L 448.19141 471.79883 L 448.08398 468.34766 L 451.35938 468.23242 C 452.29534 468.19963 453.0728 468.40103 453.69141 468.83594 C 454.30937 469.25011 454.62983 469.78778 454.65039 470.45117 C 454.66301 470.8583 454.55035 471.233 454.33008 471.57812 L 457.66406 471.45898 C 457.72589 471.12713 457.76484 470.78828 457.75391 470.43555 C 457.70315 468.79781 457.05684 467.49299 455.81641 466.51953 C 454.59483 465.52466 453.03791 465.06069 451.14648 465.12695 z M 422.68164 466.12305 L 409.54883 466.58398 C 408.26188 466.62907 407.63389 467.17049 407.66602 468.20703 C 407.69814 469.24358 408.35758 469.73844 409.64453 469.69336 L 410.08398 469.67773 L 410.19141 473.16406 L 413.11719 473.05859 L 413.00781 469.57617 L 419.85352 469.33594 L 419.90039 470.89062 C 419.93162 471.89836 420.21259 472.52654 420.73438 472.78516 L 422.11328 472.73633 C 422.61762 472.44163 422.8574 471.79651 422.82617 470.78906 L 422.68164 466.12305 z M 386.9043 467.37695 L 374.9707 467.79492 L 375.13477 473.08203 C 375.15232 473.64836 375.25432 474.08604 375.43164 474.41211 L 377.8457 474.32617 C 378.00185 473.9886 378.07611 473.54382 378.05859 472.97852 L 377.99219 470.80273 L 383.22656 470.61914 L 380.73047 474.22266 L 384.44922 474.08789 L 386.99805 470.39258 L 386.9043 467.37695 z M 351.82812 468.60547 L 339.89453 469.02344 L 340.05859 474.31055 C 340.0767 474.89477 340.18492 475.34334 340.37305 475.67188 L 342.75391 475.58594 C 342.92084 475.24507 343.00051 474.79052 342.98242 474.20703 L 342.91602 472.03125 L 348.15039 471.84766 L 345.63281 475.48438 L 349.35156 475.34961 L 351.92188 471.62305 L 351.82812 468.60547 z M 315.20312 469.88867 L 306.36914 470.19922 C 305.08219 470.2443 304.4542 470.78377 304.48633 471.82031 C 304.51845 472.85686 305.1779 473.35368 306.46484 473.30859 L 309.41992 473.20508 L 309.53125 476.78125 L 312.45508 476.67578 L 312.34375 473.10156 L 315.29883 472.99805 C 316.58577 472.95296 317.21377 472.4135 317.18164 471.37695 C 317.14952 470.34041 316.49007 469.84359 315.20312 469.88867 z M 276.06055 471.25977 L 269.24609 471.49805 C 267.95915 471.54313 267.33116 472.08455 267.36328 473.12109 C 267.39541 474.15764 268.05485 474.65446 269.3418 474.60938 L 269.78125 474.59375 L 269.89258 478.20508 L 272.81836 478.09961 L 272.70508 474.49023 L 276.1582 474.36914 C 277.17216 474.33362 277.96924 474.56599 278.55078 475.06445 C 279.15118 475.5415 279.46456 476.22576 279.49219 477.11719 C 279.50044 477.38345 279.4713 477.62806 279.42383 477.86328 L 282.56836 477.75 C 282.5884 477.48001 282.59879 477.20451 282.58984 476.91602 C 282.53652 475.19535 281.89733 473.80511 280.67383 472.74805 C 279.45032 471.69098 277.91297 471.19487 276.06055 471.25977 z M 416.99219 471.52148 C 416.21203 471.54881 415.77069 472.03575 415.65625 472.9668 L 418.44336 472.86719 C 418.26814 471.94817 417.78745 471.49362 416.99219 471.52148 z "
       transform="scale(0.26458333)"
       id="rect1149" />
    <path
       style="font-style:normal;font-weight:normal;font-size:7.98374271px;line-height:1.25;font-family:sans-serif;letter-spacing:0px;word-spacing:0px;fill:#b70000;fill-opacity:1;stroke:none;stroke-width:1.00000012;stroke-opacity:1"
       d="M 527.53125 473.72266 L 515.58789 474.15234 L 514.27539 477.95117 C 512.96894 477.99694 512.33311 478.53767 512.36523 479.57422 C 512.39736 480.61076 513.0568 481.10758 514.34375 481.0625 L 518.23242 480.92578 C 519.51937 480.8807 520.14736 480.33928 520.11523 479.30273 C 520.08311 478.26619 519.42367 477.77132 518.13672 477.81641 L 517.46484 477.83984 L 518.08008 476.01172 L 525.04297 475.76758 L 525.77148 477.54883 L 525.09766 477.57227 C 523.81071 477.61735 523.18467 478.15682 523.2168 479.19336 C 523.24892 480.2299 523.90837 480.72672 525.19531 480.68164 L 529.25977 480.53906 C 530.54671 480.49398 531.1747 479.95256 531.14258 478.91602 C 531.11045 477.87947 530.43141 477.38519 529.10547 477.43164 L 527.53125 473.72266 z M 487.97656 475.14258 L 485.05273 475.24805 L 485.16797 478.9707 L 482.21289 479.07422 C 480.92594 479.1193 480.29795 479.66072 480.33008 480.69727 C 480.3622 481.73381 481.02165 482.22868 482.30859 482.18359 L 491.14258 481.875 C 492.42952 481.82992 493.05752 481.2885 493.02539 480.25195 C 492.99327 479.21541 492.33382 478.72054 491.04688 478.76562 L 488.0918 478.86914 L 487.97656 475.14258 z M 574.56641 475.31055 L 574.03906 475.32812 C 573.51258 475.34657 573.06073 475.56977 572.68359 475.99805 C 572.32532 476.40491 572.15453 476.88753 572.17188 477.44727 C 572.18922 478.007 572.3901 478.48899 572.77344 478.89062 C 573.17563 479.27085 573.63954 479.45204 574.16602 479.43359 L 574.69336 479.41406 C 575.23934 479.39494 575.69055 479.18226 576.04883 478.77539 C 576.40711 478.36853 576.57854 477.87539 576.56055 477.29492 C 576.54256 476.71446 576.34168 476.23247 575.95898 475.85156 C 575.57629 475.47065 575.11238 475.29142 574.56641 475.31055 z M 557.02734 475.92383 L 556.50195 475.94336 C 555.97547 475.9618 555.52362 476.185 555.14648 476.61328 C 554.78821 477.02015 554.61742 477.50277 554.63477 478.0625 C 554.65211 478.62223 554.85299 479.10227 555.23633 479.50391 C 555.63852 479.88413 556.10243 480.06532 556.62891 480.04688 L 557.1543 480.0293 C 557.70027 480.01017 558.15344 479.79749 558.51172 479.39062 C 558.87 478.98376 559.03947 478.48867 559.02148 477.9082 C 559.00349 477.32774 558.80261 476.8477 558.41992 476.4668 C 558.03723 476.08589 557.57332 475.9047 557.02734 475.92383 z M 455.82422 476.29883 L 451.33008 476.46094 C 451.94755 476.74659 452.77077 477.5065 453.82422 478.79297 C 454.99951 480.18378 455.9725 481.61273 456.74023 483.08008 L 459.05078 482.99805 C 460.33773 482.95296 460.96377 482.4135 460.93164 481.37695 C 460.89952 480.34041 460.24007 479.84359 458.95312 479.88867 L 458.57422 479.90234 C 457.67148 478.4822 456.75416 477.28628 455.82422 476.29883 z M 539.49023 476.53906 L 538.96289 476.55664 C 538.43641 476.57508 537.98456 476.79828 537.60742 477.22656 C 537.24914 477.63343 537.08031 478.118 537.09766 478.67773 C 537.115 479.23747 537.31393 479.7175 537.69727 480.11914 C 538.09946 480.49937 538.56337 480.68055 539.08984 480.66211 L 539.61719 480.64258 C 540.16316 480.62345 540.61438 480.41077 540.97266 480.00391 C 541.33093 479.59704 541.50237 479.1039 541.48438 478.52344 C 541.46638 477.94297 541.2655 477.46294 540.88281 477.08203 C 540.50012 476.70112 540.03621 476.51994 539.49023 476.53906 z M 448.33984 476.56836 L 445.41602 476.67383 L 445.5293 480.35938 L 445.08984 480.375 C 443.8029 480.42008 443.17491 480.9615 443.20703 481.99805 C 443.23916 483.03459 443.8986 483.52946 445.18555 483.48438 L 449.57422 483.33008 C 450.86117 483.28499 451.4872 482.74553 451.45508 481.70898 C 451.42295 480.67244 450.76351 480.17562 449.47656 480.2207 L 448.45312 480.25586 L 448.33984 476.56836 z M 422.5625 477.49414 L 421.86133 477.51953 C 421.12687 477.7017 420.77697 478.39596 420.81445 479.60547 L 420.86523 481.22266 L 413.37695 481.48633 L 413.26367 477.82812 L 410.33984 477.93359 L 410.45312 481.58789 L 410.01367 481.60352 C 408.72673 481.6486 408.10069 482.19002 408.13281 483.22656 C 408.16494 484.26311 408.82438 484.75797 410.11133 484.71289 L 423.88672 484.23047 L 423.74023 479.50391 C 423.70267 478.29198 423.30955 477.62261 422.5625 477.49414 z M 418.60938 477.63672 L 415.78906 477.73828 C 415.94496 478.7188 416.43258 479.1989 417.25977 479.16992 C 418.07079 479.14151 418.51732 478.62684 418.60938 477.63672 z M 387.64258 478.74805 L 385.28906 478.83398 C 385.11359 479.17707 385.02836 479.63886 385.04688 480.23633 L 385.11719 482.47656 L 378.50781 482.70703 L 381.07422 478.98438 L 377.33984 479.11914 L 374.76367 482.83789 L 374.85938 485.94727 L 388.13867 485.48242 L 387.97266 480.13477 C 387.95408 479.53547 387.84006 479.0783 387.64258 478.74805 z M 352.58594 480.00781 L 350.19727 480.09375 C 350.03283 480.43391 349.9547 480.88552 349.97266 481.46484 L 350.04102 483.70508 L 343.43164 483.93555 L 345.97656 480.24609 L 342.24023 480.38086 L 339.6875 484.06641 L 339.7832 487.17578 L 353.0625 486.71094 L 352.89648 481.36328 C 352.8785 480.78286 352.77174 480.33587 352.58594 480.00781 z M 312.60156 481.44531 L 309.67773 481.55078 L 309.78906 485.11523 L 306.83398 485.21875 C 305.54704 485.26383 304.921 485.8033 304.95312 486.83984 C 304.98525 487.87639 305.64469 488.37321 306.93164 488.32812 L 315.76367 488.01758 C 317.05062 487.97249 317.67861 487.43303 317.64648 486.39648 C 317.61436 485.35994 316.95492 484.86312 315.66797 484.9082 L 312.71289 485.01172 L 312.60156 481.44531 z M 278.75977 482.66211 L 270.04102 482.97461 L 270.15039 486.50391 L 269.71094 486.51758 C 268.42399 486.56266 267.79795 487.10408 267.83008 488.14062 C 267.8622 489.17717 268.52165 489.67399 269.80859 489.62891 L 276.06641 489.4082 C 277.35335 489.36312 277.98134 488.82365 277.94922 487.78711 C 277.91709 486.75057 277.25765 486.25374 275.9707 486.29883 L 273.07422 486.40039 L 272.97852 483.29102 L 275.8457 483.19141 C 276.93374 483.15329 277.90318 482.97431 278.75977 482.66211 z "
       transform="scale(0.26458333)"
       id="text1157" />
    <path
       id="path1163"
       transform="scale(0.26458333)"
       d="M 527.53125 473.72266 L 515.58789 474.15234 L 514.27539 477.95117 C 512.96894 477.99694 512.33311 478.53767 512.36523 479.57422 C 512.39736 480.61076 513.0568 481.10758 514.34375 481.0625 L 518.23242 480.92578 C 519.51937 480.8807 520.14736 480.33928 520.11523 479.30273 C 520.08311 478.26619 519.42367 477.77132 518.13672 477.81641 L 517.46484 477.83984 L 518.08008 476.01172 L 525.04297 475.76758 L 525.77148 477.54883 L 525.09766 477.57227 C 523.81071 477.61735 523.18467 478.15682 523.2168 479.19336 C 523.24892 480.2299 523.90837 480.72672 525.19531 480.68164 L 529.25977 480.53906 C 530.54671 480.49398 531.1747 479.95256 531.14258 478.91602 C 531.11045 477.87947 530.43141 477.38519 529.10547 477.43164 L 527.53125 473.72266 z M 487.97656 475.14258 L 485.05273 475.24805 L 485.16797 478.9707 L 482.21289 479.07422 C 480.92594 479.1193 480.29795 479.66072 480.33008 480.69727 C 480.3622 481.73381 481.02165 482.22868 482.30859 482.18359 L 491.14258 481.875 C 492.42952 481.82992 493.05752 481.2885 493.02539 480.25195 C 492.99327 479.21541 492.33382 478.72054 491.04688 478.76562 L 488.0918 478.86914 L 487.97656 475.14258 z M 574.56641 475.31055 L 574.03906 475.32812 C 573.51258 475.34657 573.06073 475.56977 572.68359 475.99805 C 572.32532 476.40491 572.15453 476.88753 572.17188 477.44727 C 572.18922 478.007 572.3901 478.48899 572.77344 478.89062 C 573.17563 479.27085 573.63954 479.45204 574.16602 479.43359 L 574.69336 479.41406 C 575.23934 479.39494 575.69055 479.18226 576.04883 478.77539 C 576.40711 478.36853 576.57854 477.87539 576.56055 477.29492 C 576.54256 476.71446 576.34168 476.23247 575.95898 475.85156 C 575.57629 475.47065 575.11238 475.29142 574.56641 475.31055 z M 557.02734 475.92383 L 556.50195 475.94336 C 555.97547 475.9618 555.52362 476.185 555.14648 476.61328 C 554.78821 477.02015 554.61742 477.50277 554.63477 478.0625 C 554.65211 478.62223 554.85299 479.10227 555.23633 479.50391 C 555.63852 479.88413 556.10243 480.06532 556.62891 480.04688 L 557.1543 480.0293 C 557.70027 480.01017 558.15344 479.79749 558.51172 479.39062 C 558.87 478.98376 559.03947 478.48867 559.02148 477.9082 C 559.00349 477.32774 558.80261 476.8477 558.41992 476.4668 C 558.03723 476.08589 557.57332 475.9047 557.02734 475.92383 z M 455.82422 476.29883 L 451.33008 476.46094 C 451.94755 476.74659 452.77077 477.5065 453.82422 478.79297 C 454.99951 480.18378 455.9725 481.61273 456.74023 483.08008 L 459.05078 482.99805 C 460.33773 482.95296 460.96377 482.4135 460.93164 481.37695 C 460.89952 480.34041 460.24007 479.84359 458.95312 479.88867 L 458.57422 479.90234 C 457.67148 478.4822 456.75416 477.28628 455.82422 476.29883 z M 539.49023 476.53906 L 538.96289 476.55664 C 538.43641 476.57508 537.98456 476.79828 537.60742 477.22656 C 537.24914 477.63343 537.08031 478.118 537.09766 478.67773 C 537.115 479.23747 537.31393 479.7175 537.69727 480.11914 C 538.09946 480.49937 538.56337 480.68055 539.08984 480.66211 L 539.61719 480.64258 C 540.16316 480.62345 540.61438 480.41077 540.97266 480.00391 C 541.33093 479.59704 541.50237 479.1039 541.48438 478.52344 C 541.46638 477.94297 541.2655 477.46294 540.88281 477.08203 C 540.50012 476.70112 540.03621 476.51994 539.49023 476.53906 z M 448.33984 476.56836 L 445.41602 476.67383 L 445.5293 480.35938 L 445.08984 480.375 C 443.8029 480.42008 443.17491 480.9615 443.20703 481.99805 C 443.23916 483.03459 443.8986 483.52946 445.18555 483.48438 L 449.57422 483.33008 C 450.86117 483.28499 451.4872 482.74553 451.45508 481.70898 C 451.42295 480.67244 450.76351 480.17562 449.47656 480.2207 L 448.45312 480.25586 L 448.33984 476.56836 z M 422.5625 477.49414 L 421.86133 477.51953 C 421.12687 477.7017 420.77697 478.39596 420.81445 479.60547 L 420.86523 481.22266 L 413.37695 481.48633 L 413.26367 477.82812 L 410.33984 477.93359 L 410.45312 481.58789 L 410.01367 481.60352 C 408.72673 481.6486 408.10069 482.19002 408.13281 483.22656 C 408.16494 484.26311 408.82438 484.75797 410.11133 484.71289 L 423.88672 484.23047 L 423.74023 479.50391 C 423.70267 478.29198 423.30955 477.62261 422.5625 477.49414 z M 418.60938 477.63672 L 415.78906 477.73828 C 415.94496 478.7188 416.43258 479.1989 417.25977 479.16992 C 418.07079 479.14151 418.51732 478.62684 418.60938 477.63672 z M 387.64258 478.74805 L 385.28906 478.83398 C 385.11359 479.17707 385.02836 479.63886 385.04688 480.23633 L 385.11719 482.47656 L 378.50781 482.70703 L 381.07422 478.98438 L 377.33984 479.11914 L 374.76367 482.83789 L 374.85938 485.94727 L 388.13867 485.48242 L 387.97266 480.13477 C 387.95408 479.53547 387.84006 479.0783 387.64258 478.74805 z M 352.58594 480.00781 L 350.19727 480.09375 C 350.03283 480.43391 349.9547 480.88552 349.97266 481.46484 L 350.04102 483.70508 L 343.43164 483.93555 L 345.97656 480.24609 L 342.24023 480.38086 L 339.6875 484.06641 L 339.7832 487.17578 L 353.0625 486.71094 L 352.89648 481.36328 C 352.8785 480.78286 352.77174 480.33587 352.58594 480.00781 z M 312.60156 481.44531 L 309.67773 481.55078 L 309.78906 485.11523 L 306.83398 485.21875 C 305.54704 485.26383 304.921 485.8033 304.95312 486.83984 C 304.98525 487.87639 305.64469 488.37321 306.93164 488.32812 L 315.76367 488.01758 C 317.05062 487.97249 317.67861 487.43303 317.64648 486.39648 C 317.61436 485.35994 316.95492 484.86312 315.66797 484.9082 L 312.71289 485.01172 L 312.60156 481.44531 z M 278.75977 482.66211 L 270.04102 482.97461 L 270.15039 486.50391 L 269.71094 486.51758 C 268.42399 486.56266 267.79795 487.10408 267.83008 488.14062 C 267.8622 489.17717 268.52165 489.67399 269.80859 489.62891 L 276.06641 489.4082 C 277.35335 489.36312 277.98134 488.82365 277.94922 487.78711 C 277.91709 486.75057 277.25765 486.25374 275.9707 486.29883 L 273.07422 486.40039 L 272.97852 483.29102 L 275.8457 483.19141 C 276.93374 483.15329 277.90318 482.97431 278.75977 482.66211 z "
       style="font-style:normal;font-weight:normal;font-size:7.98374271px;line-height:1.25;font-family:sans-serif;letter-spacing:0px;word-spacing:0px;fill:#820000;fill-opacity:1;stroke:none;stroke-width:1.00000012;stroke-opacity:1" />
  </g>
</svg>
