<?xml version="1.0" encoding="UTF-8" standalone="no"?>
<!-- Created with Inkscape (http://www.inkscape.org/) -->

<svg
   xmlns:dc="http://purl.org/dc/elements/1.1/"
   xmlns:cc="http://creativecommons.org/ns#"
   xmlns:rdf="http://www.w3.org/1999/02/22-rdf-syntax-ns#"
   xmlns:svg="http://www.w3.org/2000/svg"
   xmlns="http://www.w3.org/2000/svg"
   xmlns:sodipodi="http://sodipodi.sourceforge.net/DTD/sodipodi-0.dtd"
   xmlns:inkscape="http://www.inkscape.org/namespaces/inkscape"
   width="210mm"
   height="297mm"
   viewBox="0 0 210 297"
   version="1.1"
   id="svg5559"
   inkscape:export-filename="/home/tuyen/design/image1b.png"
   inkscape:export-xdpi="150"
   inkscape:export-ydpi="150"
   inkscape:version="0.92.4 (33fec40, 2019-01-16)"
   sodipodi:docname="losfizio1.svg">
  <defs
     id="defs5553" />
  <sodipodi:namedview
     id="base"
     pagecolor="#ffffff"
     bordercolor="#666666"
     borderopacity="1.0"
     inkscape:pageopacity="0.0"
     inkscape:pageshadow="2"
     inkscape:zoom="0.52881091"
     inkscape:cx="67.875633"
     inkscape:cy="645.69313"
     inkscape:document-units="mm"
     inkscape:current-layer="layer1"
     showgrid="false"
     inkscape:window-width="1366"
     inkscape:window-height="713"
     inkscape:window-x="0"
     inkscape:window-y="27"
     inkscape:window-maximized="1" />
  <metadata
     id="metadata5556">
    <rdf:RDF>
      <cc:Work
         rdf:about="">
        <dc:format>image/svg+xml</dc:format>
        <dc:type
           rdf:resource="http://purl.org/dc/dcmitype/StillImage" />
        <dc:title></dc:title>
      </cc:Work>
    </rdf:RDF>
  </metadata>
  <g
     inkscape:label="Layer 1"
     inkscape:groupmode="layer"
     id="layer1">
    <rect
       style="opacity:1;fill:#010201;fill-opacity:1;fill-rule:nonzero;stroke:none;stroke-width:0.29999998;stroke-linecap:square;stroke-linejoin:miter;stroke-miterlimit:4;stroke-dasharray:none;stroke-dashoffset:0;stroke-opacity:1;paint-order:fill markers stroke"
       id="rect6104"
       width="180"
       height="229.51984"
       x="-0.20724604"
       y="0.2684305" />
    <path
       style="font-style:normal;font-variant:normal;font-weight:normal;font-stretch:normal;font-size:47.69301224px;line-height:1.25;font-family:Rhesmanisa;-inkscape-font-specification:Rhesmanisa;letter-spacing:0px;word-spacing:0px;fill:#ffffff;fill-opacity:1;stroke:#ffffff;stroke-width:0.30000001;stroke-miterlimit:4;stroke-dasharray:none;stroke-opacity:1"
       d="m 93.719618,25.555575 c -1.08452,0 -2.29453,0.074 -3.59708,0.21907 -0.32563,0.0363 -0.65708,0.077 -0.99379,0.12213 -9.09151,1.21893 -22.038264,5.65532 -28.835783,12.51821 -2.09159,2.09157 -2.90499,3.98955 -2.51766,5.69379 0.70209,2.10629 3.908591,3.41936 6.34208,3.94586 5.43523,1.17596 6.5855,1.38953 11.855163,2.02798 2.49701,0.30253 7.8442,1.21809 9.91958,1.86186 12.72427,3.94697 1.74024,11.53501 -7.34844,14.57477 -9.088683,3.03975 -15.152592,3.80999 -22.833893,3.37136 -4.78483,-0.27323 -10.354691,-2.36056 -7.70813,-6.54928 2.64656,-4.18872 8.92054,-6.91334 13.250799,-8.18605 4.33026,-1.27271 5.930071,-1.4502 6.215731,-1.91721 0.285661,-0.46701 -0.636111,-0.70277 -2.70974,-0.13727 -1.036842,0.28275 -5.19066,1.5279 -8.92105,3.20191 -3.7304,1.674 -9.928181,6.04251 -10.05889,9.48415 -0.13071,3.44164 4.67926,4.71888 11.38183,5.04546 6.70258,0.32658 15.106969,-0.82913 23.555863,-3.9846 8.44889,-3.15547 16.88472,-10.85304 8.49606,-14.66385 -0.8432,-0.38305 -4.08667,-1.59768 -8.16585,-2.1441 -6.79842,-0.91068 -13.348024,-1.89072 -17.147243,-3.03504 -1.77424,-0.5344 -4.24781,-1.36552 -4.70398,-2.96213 -0.3486,-1.39439 0.38706,-2.98237 2.20752,-4.80282 7.862779,-7.94025 24.285603,-12.51065 32.651923,-12.51065 1.35565,0 2.51783,0.11612 3.52489,0.42598 0.005,0.002 0.0102,0.004 0.0151,0.005 0.85355,0.34719 1.73864,0.93368 1.93473,1.88142 0.007,0.0557 0.0123,0.11583 0.0143,0.18088 0.0297,0.97552 -0.62138,3.00403 -4.50736,6.05472 -0.21446,0.3162 -0.19046,0.59132 0.0865,0.77389 0.32401,0.0972 0.84311,0.21137 0.98523,0.12845 3.56342,-2.82749 5.190032,-5.22884 4.841432,-7.20422 -0.15367,-0.84519 -0.84277,-2.0325 -3.046042,-2.76989 -8e-4,-2.4e-4 -0.002,-5.9e-4 -0.002,-8.1e-4 -0.15905,-0.0637 -0.32393,-0.12592 -0.50194,-0.18424 -0.24208,-0.0678 -0.50345,-0.13087 -0.78186,-0.18717 -0.2784,-0.0563 -0.57396,-0.10571 -0.88385,-0.14689 -0.61976,-0.0824 -1.29748,-0.13094 -2.01404,-0.13094 z"
       id="path5395"
       inkscape:connector-curvature="0"
       sodipodi:nodetypes="ccsccssszszzzsszzzsssccsccccccccccccccc" />
    <text
       xml:space="preserve"
       style="font-style:normal;font-variant:normal;font-weight:normal;font-stretch:normal;font-size:50.79999924px;line-height:1.25;font-family:Rhesmanisa;-inkscape-font-specification:Rhesmanisa;letter-spacing:0px;word-spacing:0px;fill:#ffffff;fill-opacity:1;stroke:#ffffff;stroke-width:0.30000001;stroke-miterlimit:4;stroke-dasharray:none;stroke-opacity:1"
       x="97.626488"
       y="59.88419"
       id="text5441"><tspan
         sodipodi:role="line"
         id="tspan5439"
         x="97.626488"
         y="59.88419"
         style="font-style:normal;font-variant:normal;font-weight:normal;font-stretch:normal;font-family:Rhesmanisa;-inkscape-font-specification:Rhesmanisa;fill:#ffffff;fill-opacity:1;stroke:#ffffff;stroke-width:0.30000001;stroke-miterlimit:4;stroke-dasharray:none;stroke-opacity:1">fizio</tspan></text>
    <ellipse
       style="opacity:1;fill:#010201;fill-opacity:1;fill-rule:nonzero;stroke:none;stroke-width:0.30000001;stroke-linecap:square;stroke-linejoin:miter;stroke-miterlimit:4;stroke-dasharray:none;stroke-dashoffset:0;stroke-opacity:1;paint-order:fill markers stroke"
       id="path5520"
       cx="107.71983"
       cy="42.292572"
       rx="1.4499371"
       ry="1.1693041" />
    <path
       id="path5518"
       style="font-style:normal;font-variant:normal;font-weight:normal;font-stretch:normal;font-size:47.69301224px;line-height:1.25;font-family:Rhesmanisa;-inkscape-font-specification:Rhesmanisa;letter-spacing:0px;word-spacing:0px;fill:#47c400;fill-opacity:1;stroke:none;stroke-width:0.26458338"
       d="m 108.67498,42.654275 c 0.38154,-0.0954 0.62001,-0.28615 0.90617,-0.81078 -0.0477,-0.28615 -0.76309,-0.38154 -1.14464,-0.28615 -0.19077,0.0477 -0.33385,0.28615 -0.42923,0.47693 l -0.14308,0.28615 c -0.28616,0.47693 0.47693,0.42924 0.85847,0.33385 z m -0.46119,-0.30746 c 0.38154,-0.0954 0.62001,-0.28616 0.90617,-0.81078 -0.0477,-0.28616 -0.76309,-0.38155 -1.14463,-0.28616 -0.19078,0.0477 -0.33386,0.28616 -0.42924,0.47693 l -0.14308,0.28616 c -0.28616,0.47693 0.47693,0.42924 0.85847,0.33385 z m 0,0.30746 c 0.38154,-0.0954 0.62001,-0.28615 0.90617,-0.81078 -0.0477,-0.28615 -0.76309,-0.38154 -1.14463,-0.28615 -0.19078,0.0477 -0.33386,0.28615 -0.42924,0.47693 l -0.14308,0.28615 c -0.28616,0.47693 0.47693,0.42924 0.85847,0.33385 z"
       inkscape:connector-curvature="0" />
    <ellipse
       ry="1.1693041"
       rx="1.4499371"
       cy="42.47966"
       cx="124.23042"
       id="ellipse5522"
       style="opacity:1;fill:#010201;fill-opacity:1;fill-rule:nonzero;stroke:none;stroke-width:0.30000001;stroke-linecap:square;stroke-linejoin:miter;stroke-miterlimit:4;stroke-dasharray:none;stroke-dashoffset:0;stroke-opacity:1;paint-order:fill markers stroke" />
    <path
       inkscape:connector-curvature="0"
       d="m 124.65062,42.654275 c 0.38154,-0.0954 0.62001,-0.28615 0.90617,-0.81078 -0.0477,-0.28615 -0.76309,-0.38154 -1.14464,-0.28615 -0.19077,0.0477 -0.33385,0.28615 -0.42923,0.47693 l -0.14308,0.28615 c -0.28616,0.47693 0.47693,0.42924 0.85847,0.33385 z m -0.46119,-0.30746 c 0.38154,-0.0954 0.62001,-0.28616 0.90617,-0.81078 -0.0477,-0.28616 -0.76309,-0.38155 -1.14463,-0.28616 -0.19078,0.0477 -0.33386,0.28616 -0.42924,0.47693 l -0.14308,0.28616 c -0.28616,0.47693 0.47693,0.42924 0.85847,0.33385 z m 0,0.30746 c 0.38154,-0.0954 0.62001,-0.28615 0.90617,-0.81078 -0.0477,-0.28615 -0.76309,-0.38154 -1.14463,-0.28615 -0.19078,0.0477 -0.33386,0.28615 -0.42924,0.47693 l -0.14308,0.28615 c -0.28616,0.47693 0.47693,0.42924 0.85847,0.33385 z"
       style="font-style:normal;font-variant:normal;font-weight:normal;font-stretch:normal;font-size:47.69301224px;line-height:1.25;font-family:Rhesmanisa;-inkscape-font-specification:Rhesmanisa;letter-spacing:0px;word-spacing:0px;fill:#d60300;fill-opacity:1;stroke:none;stroke-width:0.26458338"
       id="path5516" />
    <text
       id="text5545"
       y="53.071098"
       x="36.315544"
       style="font-style:normal;font-weight:normal;font-size:10.95166302px;line-height:1.25;font-family:sans-serif;letter-spacing:0px;word-spacing:0px;fill:#fff4f2;fill-opacity:1;stroke:none;stroke-width:0.26458338"
       xml:space="preserve"><tspan
         rotate="0 0 357 0"
         style="font-size:28.22222137px;fill:#fff4f2;fill-opacity:1;stroke-width:0.26458338"
         y="53.071098"
         x="36.315544"
         id="tspan5541"
         sodipodi:role="line"><tspan
   rotate="357 357 0"
   id="tspan5539"
   style="font-style:normal;font-variant:normal;font-weight:normal;font-stretch:normal;font-size:28.22222137px;font-family:Rhesmanisa;-inkscape-font-specification:Rhesmanisa;fill:#fff4f2;fill-opacity:1;stroke-width:0.26458338">Lo</tspan> </tspan><tspan
         id="tspan5543"
         rotate="0 0 353.49997 0"
         style="font-size:34.68582535px;fill:#fff4f2;fill-opacity:1;stroke-width:0.26458338"
         y="73.068481"
         x="36.315544"
         sodipodi:role="line" /></text>
    <text
       xml:space="preserve"
       style="font-style:normal;font-variant:normal;font-weight:bold;font-stretch:normal;font-size:6.3499999px;line-height:1.25;font-family:Montserrat;-inkscape-font-specification:'Montserrat Bold';letter-spacing:0px;word-spacing:0px;fill:#ffffff;fill-opacity:1;stroke:none;stroke-width:0.26458335"
       x="86.379333"
       y="78.150208"
       id="text5549"
       transform="matrix(0.969904,-0.0024478,-0.00155781,1.0310338,0,0)"><tspan
         sodipodi:role="line"
         id="tspan5547"
         x="86.379333"
         y="78.150208"
         style="font-style:normal;font-variant:normal;font-weight:bold;font-stretch:normal;font-size:6.3499999px;font-family:'Josefin Sans SemiBold';-inkscape-font-specification:'Josefin Sans SemiBold, Bold';fill:#ffffff;fill-opacity:1;stroke-width:0.26458335">P I Z Z E R I A . . .</tspan></text>
    <g
       id="g6204"
       transform="translate(5.7213609,23.333707)">
      <path
         sodipodi:nodetypes="ccsccsszszzzsszzzcsccsccccccccccccccc"
         inkscape:connector-curvature="0"
         id="path5395-3"
         d="m 104.85197,121.07922 c -1.37635,0 -2.91197,0.078 -4.56502,0.23105 -0.413261,0.0383 -0.8339,0.0812 -1.261218,0.1288 -11.537972,1.28552 -28.750671,8.40159 -37.377356,15.63941 -2.654423,2.20585 -3.686703,4.20752 -3.195145,6.00487 0.891017,2.22136 5.118827,3.42794 8.04869,4.16143 4.763044,1.19242 10.455166,1.92482 15.679755,2.90332 16.178812,3.03006 3.093003,11.98831 -8.441376,15.19414 -11.534383,3.20583 -19.230049,4.01814 -28.978336,3.55555 -6.072395,-0.28816 -13.141068,-2.48953 -9.782335,-6.90709 3.358731,-4.41757 11.320996,-7.29104 16.816499,-8.63328 5.495503,-1.34224 7.525812,-1.52943 7.888341,-2.02195 0.362531,-0.49253 -0.807284,-0.74117 -3.438912,-0.14477 -1.315849,0.29819 -6.587431,1.61137 -11.321644,3.37684 -4.734225,1.76545 -12.599787,6.37264 -12.765669,10.00229 -0.165883,3.62967 5.938417,4.9767 14.444603,5.32111 8.506199,0.34443 19.172152,-0.87442 29.894583,-4.20229 10.722428,-3.32786 21.428283,-11.44597 10.782291,-15.46498 -7.23646,-2.19075 -14.042094,-2.43049 -21.054729,-4.08616 -2.185827,-0.51607 -5.390866,-1.44011 -5.969789,-3.12396 -0.442405,-1.47056 0.491216,-3.14531 2.801549,-5.0652 9.978599,-8.37405 31.602754,-15.63146 42.220398,-15.63146 1.72044,0 3.19536,0.12246 4.47341,0.44925 0.006,0.002 0.0129,0.004 0.0192,0.005 1.08323,0.36615 2.20649,0.98469 2.45535,1.9842 0.009,0.0588 0.0156,0.12217 0.0181,0.19077 0.0377,1.02882 -0.78859,3.16814 -5.72026,6.3855 -0.27217,0.33348 -0.24171,0.62363 0.10977,0.81617 0.4112,0.10251 1.06999,0.22292 1.25036,0.13548 4.52231,-2.98197 6.58663,-5.51452 6.14422,-7.59782 -0.19502,-0.89136 -1.06956,-2.14353 -3.86571,-2.92121 -0.001,-2.6e-4 -0.003,-6.3e-4 -0.003,-8.5e-4 -0.20184,-0.0672 -0.41109,-0.13281 -0.637,-0.1943 -0.30722,-0.0715 -0.63893,-0.13804 -0.99226,-0.19741 -0.35331,-0.0594 -0.7284,-0.11149 -1.12168,-0.15492 -0.78654,-0.0869 -1.64663,-0.13809 -2.55601,-0.13809 z"
         style="font-style:normal;font-variant:normal;font-weight:normal;font-stretch:normal;font-size:47.69301224px;line-height:1.25;font-family:Rhesmanisa;-inkscape-font-specification:Rhesmanisa;letter-spacing:0px;word-spacing:0px;fill:#ffffff;fill-opacity:1;stroke:#ffffff;stroke-width:0.30000001;stroke-miterlimit:4;stroke-dasharray:none;stroke-opacity:1" />
      <text
         id="text5441-5"
         y="157.88435"
         x="95.857529"
         style="font-style:normal;font-variant:normal;font-weight:normal;font-stretch:normal;font-size:50.79999924px;line-height:1.25;font-family:Rhesmanisa;-inkscape-font-specification:Rhesmanisa;letter-spacing:0px;word-spacing:0px;fill:#ffffff;fill-opacity:1;stroke:#ffffff;stroke-width:0.30000001;stroke-miterlimit:4;stroke-dasharray:none;stroke-opacity:1"
         xml:space="preserve"><tspan
           style="font-style:normal;font-variant:normal;font-weight:normal;font-stretch:normal;font-family:Rhesmanisa;-inkscape-font-specification:Rhesmanisa;fill:#ffffff;fill-opacity:1;stroke:#ffffff;stroke-width:0.30000001;stroke-miterlimit:4;stroke-dasharray:none;stroke-opacity:1"
           y="157.88435"
           x="95.857529"
           id="tspan5439-1"
           sodipodi:role="line">fizio</tspan></text>
      <ellipse
         ry="1.1693041"
         rx="1.4499371"
         cy="140.29276"
         cx="105.95087"
         id="path5520-7"
         style="opacity:1;fill:#010201;fill-opacity:1;fill-rule:nonzero;stroke:none;stroke-width:0.30000001;stroke-linecap:square;stroke-linejoin:miter;stroke-miterlimit:4;stroke-dasharray:none;stroke-dashoffset:0;stroke-opacity:1;paint-order:fill markers stroke" />
      <path
         inkscape:connector-curvature="0"
         d="m 106.90601,140.65445 c 0.38154,-0.0954 0.62001,-0.28615 0.90617,-0.81078 -0.0477,-0.28615 -0.76309,-0.38154 -1.14463,-0.28615 -0.19077,0.0477 -0.33386,0.28615 -0.42924,0.47693 l -0.14308,0.28615 c -0.28616,0.47693 0.47693,0.42924 0.85848,0.33385 z m -0.46119,-0.30746 c 0.38154,-0.0954 0.62001,-0.28616 0.90617,-0.81078 -0.0477,-0.28616 -0.76309,-0.38155 -1.14463,-0.28616 -0.19078,0.0477 -0.33386,0.28616 -0.42923,0.47693 l -0.14309,0.28616 c -0.28616,0.47693 0.47693,0.42924 0.85848,0.33385 z m 0,0.30746 c 0.38154,-0.0954 0.62001,-0.28615 0.90617,-0.81078 -0.0477,-0.28615 -0.76309,-0.38154 -1.14463,-0.28615 -0.19078,0.0477 -0.33386,0.28615 -0.42923,0.47693 l -0.14309,0.28615 c -0.28616,0.47693 0.47693,0.42924 0.85848,0.33385 z"
         style="font-style:normal;font-variant:normal;font-weight:normal;font-stretch:normal;font-size:47.69301224px;line-height:1.25;font-family:Rhesmanisa;-inkscape-font-specification:Rhesmanisa;letter-spacing:0px;word-spacing:0px;fill:#47c400;fill-opacity:1;stroke:none;stroke-width:0.26458338"
         id="path5518-4" />
      <ellipse
         style="opacity:1;fill:#010201;fill-opacity:1;fill-rule:nonzero;stroke:none;stroke-width:0.30000001;stroke-linecap:square;stroke-linejoin:miter;stroke-miterlimit:4;stroke-dasharray:none;stroke-dashoffset:0;stroke-opacity:1;paint-order:fill markers stroke"
         id="ellipse5522-3"
         cx="122.46145"
         cy="140.47984"
         rx="1.4499371"
         ry="1.1693041" />
      <path
         id="path5516-1"
         style="font-style:normal;font-variant:normal;font-weight:normal;font-stretch:normal;font-size:47.69301224px;line-height:1.25;font-family:Rhesmanisa;-inkscape-font-specification:Rhesmanisa;letter-spacing:0px;word-spacing:0px;fill:#d60300;fill-opacity:1;stroke:none;stroke-width:0.26458338"
         d="m 122.88165,140.65445 c 0.38154,-0.0954 0.62002,-0.28615 0.90618,-0.81078 -0.0477,-0.28615 -0.76309,-0.38154 -1.14464,-0.28615 -0.19077,0.0477 -0.33386,0.28615 -0.42924,0.47693 l -0.14307,0.28615 c -0.28616,0.47693 0.47693,0.42924 0.85847,0.33385 z m -0.46119,-0.30746 c 0.38154,-0.0954 0.62002,-0.28616 0.90618,-0.81078 -0.0477,-0.28616 -0.76309,-0.38155 -1.14463,-0.28616 -0.19078,0.0477 -0.33387,0.28616 -0.42925,0.47693 l -0.14307,0.28616 c -0.28616,0.47693 0.47693,0.42924 0.85847,0.33385 z m 0,0.30746 c 0.38154,-0.0954 0.62002,-0.28615 0.90618,-0.81078 -0.0477,-0.28615 -0.76309,-0.38154 -1.14463,-0.28615 -0.19078,0.0477 -0.33387,0.28615 -0.42925,0.47693 l -0.14307,0.28615 c -0.28616,0.47693 0.47693,0.42924 0.85847,0.33385 z"
         inkscape:connector-curvature="0" />
      <text
         xml:space="preserve"
         style="font-style:normal;font-weight:normal;font-size:10.95166302px;line-height:1.25;font-family:sans-serif;letter-spacing:0px;word-spacing:0px;fill:#fff4f2;fill-opacity:1;stroke:none;stroke-width:0.26458338"
         x="25.729557"
         y="150.14647"
         id="text5545-4"><tspan
           sodipodi:role="line"
           id="tspan5541-6"
           x="25.729557"
           y="150.14647"
           style="font-size:28.22222137px;fill:#fff4f2;fill-opacity:1;stroke-width:0.26458338"
           rotate="0 0 357 0"><tspan
   style="font-style:normal;font-variant:normal;font-weight:normal;font-stretch:normal;font-size:28.22222137px;font-family:Rhesmanisa;-inkscape-font-specification:Rhesmanisa;fill:#fff4f2;fill-opacity:1;stroke-width:0.26458338"
   id="tspan5539-9"
   rotate="357 357 0">Lo</tspan> </tspan><tspan
           sodipodi:role="line"
           x="25.729557"
           y="170.14384"
           style="font-size:34.68582535px;fill:#fff4f2;fill-opacity:1;stroke-width:0.26458338"
           rotate="0 0 353.49997 0"
           id="tspan5543-4" /></text>
      <text
         transform="matrix(0.969904,-0.0024478,-0.00155781,1.0310338,0,0)"
         id="text5549-2"
         y="173.19664"
         x="84.708145"
         style="font-style:normal;font-variant:normal;font-weight:bold;font-stretch:normal;font-size:6.3499999px;line-height:1.25;font-family:Montserrat;-inkscape-font-specification:'Montserrat Bold';letter-spacing:0px;word-spacing:0px;fill:#ffffff;fill-opacity:1;stroke:none;stroke-width:0.26458335"
         xml:space="preserve"><tspan
           style="font-style:normal;font-variant:normal;font-weight:bold;font-stretch:normal;font-size:6.3499999px;font-family:'Josefin Sans SemiBold';-inkscape-font-specification:'Josefin Sans SemiBold, Bold';fill:#ffffff;fill-opacity:1;stroke-width:0.26458335"
           y="173.19664"
           x="84.708145"
           id="tspan5547-2"
           sodipodi:role="line">P I Z Z E R I A . . .</tspan></text>
    </g>
  </g>
</svg>
