<?xml version="1.0" encoding="UTF-8" standalone="no"?>
<!-- Created with Inkscape (http://www.inkscape.org/) -->

<svg
   xmlns:dc="http://purl.org/dc/elements/1.1/"
   xmlns:cc="http://creativecommons.org/ns#"
   xmlns:rdf="http://www.w3.org/1999/02/22-rdf-syntax-ns#"
   xmlns:svg="http://www.w3.org/2000/svg"
   xmlns="http://www.w3.org/2000/svg"
   xmlns:sodipodi="http://sodipodi.sourceforge.net/DTD/sodipodi-0.dtd"
   xmlns:inkscape="http://www.inkscape.org/namespaces/inkscape"
   width="210mm"
   height="297mm"
   viewBox="0 0 210 297"
   version="1.1"
   id="svg8"
   inkscape:export-filename="/home/tuyen/design/logo-imprimer.svg.png"
   inkscape:export-xdpi="300"
   inkscape:export-ydpi="300"
   inkscape:version="0.92.4 (33fec40, 2019-01-16)"
   sodipodi:docname="logoimprimer.svg">
  <defs
     id="defs2" />
  <sodipodi:namedview
     id="base"
     pagecolor="#ffffff"
     bordercolor="#666666"
     borderopacity="1.0"
     inkscape:pageopacity="0.0"
     inkscape:pageshadow="2"
     inkscape:zoom="1.2727411"
     inkscape:cx="419.1645"
     inkscape:cy="860.75699"
     inkscape:document-units="mm"
     inkscape:current-layer="layer1"
     showgrid="false"
     showguides="true"
     inkscape:guide-bbox="true"
     inkscape:window-width="1920"
     inkscape:window-height="1052"
     inkscape:window-x="0"
     inkscape:window-y="0"
     inkscape:window-maximized="1">
    <sodipodi:guide
       position="156.37573,206.2603"
       orientation="1,0"
       id="guide847"
       inkscape:locked="false" />
    <sodipodi:guide
       position="52.714894,205.90651"
       orientation="1,0"
       id="guide849"
       inkscape:locked="false" />
    <sodipodi:guide
       position="104.72221,192.46244"
       orientation="0,1"
       id="guide851"
       inkscape:locked="false" />
    <sodipodi:guide
       position="117.01617,247.66651"
       orientation="0,1"
       id="guide853"
       inkscape:locked="false" />
    <sodipodi:guide
       position="46.700444,238.8091"
       orientation="1,0"
       id="guide87"
       inkscape:locked="false" />
    <sodipodi:guide
       position="76.242012,253.49144"
       orientation="0,1"
       id="guide89"
       inkscape:locked="false" />
    <sodipodi:guide
       position="93.754679,186.44799"
       orientation="0,1"
       id="guide91"
       inkscape:locked="false" />
    <sodipodi:guide
       position="162.56707,214.5744"
       orientation="1,0"
       id="guide93"
       inkscape:locked="false" />
  </sodipodi:namedview>
  <metadata
     id="metadata5">
    <rdf:RDF>
      <cc:Work
         rdf:about="">
        <dc:format>image/svg+xml</dc:format>
        <dc:type
           rdf:resource="http://purl.org/dc/dcmitype/StillImage" />
        <dc:title />
      </cc:Work>
    </rdf:RDF>
  </metadata>
  <g
     inkscape:groupmode="layer"
     id="layer2"
     inkscape:label="Layer 2"
     style="display:inline" />
  <g
     inkscape:label="Layer 1"
     inkscape:groupmode="layer"
     id="layer1">
    <path
       style="font-style:normal;font-variant:normal;font-weight:normal;font-stretch:normal;font-size:47.69301224px;line-height:1.25;font-family:Rhesmanisa;-inkscape-font-specification:Rhesmanisa;letter-spacing:0px;word-spacing:0px;fill:#000000;fill-opacity:1;stroke:#000000;stroke-width:0.30000001;stroke-miterlimit:4;stroke-dasharray:none;stroke-opacity:1"
       d="m 114.67866,25.092175 c -2.05448,0 -4.34671,0.140185 -6.81424,0.415004 -0.61689,0.06877 -1.24477,0.145867 -1.88263,0.231361 -17.222834,2.309126 -41.749019,10.713369 -54.626157,23.714344 -3.962283,3.962245 -5.503178,7.557755 -4.769425,10.786247 1.330031,3.99013 7.404385,6.477594 12.014359,7.474989 10.296434,2.227724 12.475491,2.632308 22.458271,3.84178 4.730324,0.573109 14.859947,2.307535 18.79154,3.527085 24.104702,7.477092 3.296692,21.851782 -13.920785,27.610265 -17.217504,5.75847 -28.704901,7.2176 -43.256262,6.38666 -9.064323,-0.5176 -19.615798,-4.47181 -14.602187,-12.406871 5.013611,-7.93506 16.898962,-13.096547 25.102154,-15.507553 8.203191,-2.411007 11.233852,-2.747242 11.775003,-3.63194 0.541151,-0.884698 -1.205039,-1.331319 -5.133299,-0.260042 -1.964177,0.535638 -9.833123,2.894435 -16.899928,6.065659 -7.066824,3.171205 -18.807823,11.446857 -19.055438,17.966657 -0.247616,6.5198 8.864333,8.93939 21.561599,9.55806 12.697286,0.61867 28.61846,-1.57069 44.623953,-7.54838 C 106.05065,97.337817 122.03139,82.755635 106.14001,75.536483 104.54264,74.810837 98.398273,72.509857 90.670734,71.474726 77.79189,69.749545 65.384389,67.892969 58.187193,65.725183 c -3.361099,-1.012361 -8.047,-2.586824 -8.911163,-5.611423 -0.660383,-2.641515 0.733242,-5.649765 4.181899,-9.098403 14.895155,-15.041913 46.006335,-23.700023 61.855411,-23.700023 2.56812,0 4.76974,0.219976 6.67751,0.806971 0.009,0.0038 0.0193,0.0076 0.0286,0.0095 1.61696,0.657713 3.29366,1.768752 3.66513,3.564139 0.0133,0.105518 0.0233,0.219427 0.0271,0.342657 0.0563,1.848013 -1.17713,5.690798 -8.53869,11.469988 -0.40627,0.599005 -0.3608,1.120189 0.16387,1.466047 0.6138,0.184135 1.59717,0.400417 1.8664,0.243335 6.7505,-5.356363 9.83193,-9.905451 9.17155,-13.647587 -0.29111,-1.601118 -1.59653,-3.850343 -5.77038,-5.247246 -0.002,-4.54e-4 -0.004,-0.0011 -0.004,-0.0015 -0.3013,-0.120673 -0.61365,-0.238541 -0.95087,-0.349022 -0.45859,-0.12844 -0.95373,-0.247919 -1.48114,-0.354573 -0.5274,-0.106654 -1.08731,-0.200255 -1.67436,-0.278266 -1.17406,-0.156098 -2.45793,-0.248052 -3.81537,-0.248052 z"
       id="path5395"
       inkscape:connector-curvature="0"
       sodipodi:nodetypes="ccsccssszszzzsszzzsssccsccccccccccccccc"
       inkscape:export-filename="/home/tuyen/sites/projet/LoSfizio/assets/images/blacklogo.png"
       inkscape:export-xdpi="72"
       inkscape:export-ydpi="72" />
    <text
       xml:space="preserve"
       style="font-style:normal;font-variant:normal;font-weight:normal;font-stretch:normal;font-size:96.23490143px;line-height:1.25;font-family:Rhesmanisa;-inkscape-font-specification:Rhesmanisa;letter-spacing:0px;word-spacing:0px;fill:#000000;fill-opacity:1;stroke:none;stroke-width:0.30000001;stroke-miterlimit:4;stroke-dasharray:none;stroke-opacity:1;"
       x="122.07979"
       y="90.123856"
       id="text5441"
       inkscape:export-filename="/home/tuyen/sites/projet/LoSfizio/assets/images/blacklogo.png"
       inkscape:export-xdpi="72"
       inkscape:export-ydpi="72"><tspan
         sodipodi:role="line"
         id="tspan5439"
         x="122.07979"
         y="90.123856"
         style="font-style:normal;font-variant:normal;font-weight:normal;font-stretch:normal;font-family:Rhesmanisa;-inkscape-font-specification:Rhesmanisa;fill:#000000;fill-opacity:1;stroke:none;stroke-width:0.30000001;stroke-miterlimit:4;stroke-dasharray:none;stroke-opacity:1;">fizio</tspan></text>
    <path
       id="path5518"
       style="font-style:normal;font-variant:normal;font-weight:normal;font-stretch:normal;font-size:47.69301224px;line-height:1.25;font-family:Rhesmanisa;-inkscape-font-specification:Rhesmanisa;letter-spacing:0px;word-spacing:0px;fill:#47c400;fill-opacity:1;stroke:none;stroke-width:0.26458341"
       d="m 142.23139,58.045646 c 0.72279,-0.180725 1.17454,-0.542079 1.71664,-1.535932 -0.0904,-0.542079 -1.44559,-0.722785 -2.16839,-0.542079 -0.36139,0.09036 -0.63244,0.542079 -0.81313,0.90349 l -0.27105,0.542079 c -0.54209,0.903491 0.90349,0.813147 1.62628,0.632442 z m -0.87367,-0.582449 c 0.72279,-0.180724 1.17454,-0.542098 1.71664,-1.535932 -0.0904,-0.542098 -1.44559,-0.722803 -2.16837,-0.542098 -0.36141,0.09036 -0.63246,0.542098 -0.81315,0.903491 l -0.27105,0.542098 c -0.5421,0.90349 0.90349,0.813147 1.62628,0.632441 z m 0,0.582449 c 0.72279,-0.180725 1.17454,-0.542079 1.71664,-1.535932 -0.0904,-0.542079 -1.44559,-0.722785 -2.16837,-0.542079 -0.36141,0.09036 -0.63246,0.542079 -0.81315,0.90349 l -0.27105,0.542079 c -0.5421,0.903491 0.90349,0.813147 1.62628,0.632442 z"
       inkscape:connector-curvature="0"
       inkscape:export-filename="/home/tuyen/sites/projet/LoSfizio/assets/images/blacklogo.png"
       inkscape:export-xdpi="72"
       inkscape:export-ydpi="72" />
    <path
       inkscape:connector-curvature="0"
       d="m 173.44155,58.028295 c 0.72278,-0.180725 1.17454,-0.542079 1.71663,-1.535932 -0.0904,-0.542079 -1.44558,-0.722785 -2.16839,-0.542079 -0.36139,0.09036 -0.63244,0.542079 -0.81313,0.90349 l -0.27104,0.54208 c -0.5421,0.90349 0.90349,0.813147 1.62627,0.632441 z m -0.87368,-0.582449 c 0.72279,-0.180724 1.17454,-0.542098 1.71664,-1.535931 -0.0904,-0.542098 -1.44559,-0.722804 -2.16837,-0.542098 -0.36141,0.09036 -0.63246,0.542098 -0.81315,0.90349 l -0.27105,0.542098 c -0.54209,0.90349 0.90349,0.813147 1.62628,0.632441 z m 0,0.582449 c 0.72279,-0.180725 1.17454,-0.542079 1.71664,-1.535932 -0.0904,-0.542079 -1.44559,-0.722785 -2.16837,-0.542079 -0.36141,0.09036 -0.63246,0.542079 -0.81315,0.90349 l -0.27105,0.54208 c -0.54209,0.90349 0.90349,0.813147 1.62628,0.632441 z"
       style="font-style:normal;font-variant:normal;font-weight:normal;font-stretch:normal;font-size:47.69301224px;line-height:1.25;font-family:Rhesmanisa;-inkscape-font-specification:Rhesmanisa;letter-spacing:0px;word-spacing:0px;fill:#d60300;fill-opacity:1;stroke:none;stroke-width:0.26458341"
       id="path5516"
       inkscape:export-filename="/home/tuyen/sites/projet/LoSfizio/assets/images/blacklogo.png"
       inkscape:export-xdpi="72"
       inkscape:export-ydpi="72" />
    <text
       id="text5545"
       y="77.217239"
       x="5.9331036"
       style="font-style:normal;font-weight:normal;font-size:20.74669647px;line-height:1.25;font-family:sans-serif;letter-spacing:0px;word-spacing:0px;fill:#000000;fill-opacity:1;stroke:none;stroke-width:0.26458341;"
       xml:space="preserve"
       inkscape:export-filename="/home/tuyen/sites/projet/LoSfizio/assets/images/blacklogo.png"
       inkscape:export-xdpi="72"
       inkscape:export-ydpi="72"><tspan
         rotate="0 0 357 0"
         style="font-size:53.46383286px;fill:#000000;fill-opacity:1;stroke-width:0.26458341;"
         y="77.217239"
         x="5.9331036"
         id="tspan5541"
         sodipodi:role="line"><tspan
   rotate="357 357 0"
   id="tspan5539"
   style="font-style:normal;font-variant:normal;font-weight:normal;font-stretch:normal;font-size:53.46383286px;font-family:Rhesmanisa;-inkscape-font-specification:Rhesmanisa;fill:#000000;fill-opacity:1;stroke-width:0.26458341;">Lo</tspan> </tspan><tspan
         id="tspan5543"
         rotate="0 0 353.49997 0"
         style="font-size:65.70840454px;fill:#000000;fill-opacity:1;stroke-width:0.26458341;"
         y="115.10004"
         x="5.9331036"
         sodipodi:role="line" /></text>
  </g>
</svg>
