<?xml version="1.0" encoding="UTF-8" standalone="no"?>
<!-- Created with Inkscape (http://www.inkscape.org/) -->

<svg
   xmlns:dc="http://purl.org/dc/elements/1.1/"
   xmlns:cc="http://creativecommons.org/ns#"
   xmlns:rdf="http://www.w3.org/1999/02/22-rdf-syntax-ns#"
   xmlns:svg="http://www.w3.org/2000/svg"
   xmlns="http://www.w3.org/2000/svg"
   xmlns:sodipodi="http://sodipodi.sourceforge.net/DTD/sodipodi-0.dtd"
   xmlns:inkscape="http://www.inkscape.org/namespaces/inkscape"
   width="210mm"
   height="297mm"
   viewBox="0 0 210 297"
   version="1.1"
   id="svg8"
   inkscape:version="0.92.4 (33fec40, 2019-01-16)"
   sodipodi:docname="sfizio.svg"
   inkscape:export-filename="/home/tuyen/demosfizio1.png"
   inkscape:export-xdpi="150"
   inkscape:export-ydpi="150">
  <defs
     id="defs2" />
  <sodipodi:namedview
     id="base"
     pagecolor="#ffffff"
     bordercolor="#666666"
     borderopacity="1.0"
     inkscape:pageopacity="0.0"
     inkscape:pageshadow="2"
     inkscape:zoom="0.37392578"
     inkscape:cx="537.79058"
     inkscape:cy="930.03165"
     inkscape:document-units="mm"
     inkscape:current-layer="layer1"
     showgrid="false"
     inkscape:window-width="1366"
     inkscape:window-height="713"
     inkscape:window-x="0"
     inkscape:window-y="27"
     inkscape:window-maximized="1" />
  <metadata
     id="metadata5">
    <rdf:RDF>
      <cc:Work
         rdf:about="">
        <dc:format>image/svg+xml</dc:format>
        <dc:type
           rdf:resource="http://purl.org/dc/dcmitype/StillImage" />
        <dc:title />
      </cc:Work>
    </rdf:RDF>
  </metadata>
  <g
     inkscape:label="Calque 1"
     inkscape:groupmode="layer"
     id="layer1">
    <rect
       style="opacity:1;fill:none;fill-opacity:0.98492462;fill-rule:nonzero;stroke:#000000;stroke-width:0.1;stroke-linecap:round;stroke-linejoin:miter;stroke-miterlimit:4;stroke-dasharray:none;stroke-opacity:1"
       id="rect4615"
       width="212.06749"
       height="160.97501"
       x="-0.35379127"
       y="-0.18464351"
       inkscape:export-filename="/home/tuyen/demosfizio1.png"
       inkscape:export-xdpi="150"
       inkscape:export-ydpi="150" />
    <path
       style="opacity:1;fill:#030303;fill-opacity:1;fill-rule:nonzero;stroke:none;stroke-width:0.09999998;stroke-linecap:round;stroke-linejoin:miter;stroke-miterlimit:4;stroke-dasharray:none;stroke-opacity:1"
       id="path827"
       sodipodi:type="arc"
       sodipodi:cx="27.834528"
       sodipodi:cy="46.108654"
       sodipodi:rx="146.48853"
       sodipodi:ry="135.43098"
       sodipodi:start="0"
       sodipodi:end="0.71558499"
       d="M 174.32305,46.108654 A 146.48853,135.43098 0 0 1 138.39082,134.95937 L 27.834528,46.108654 Z" />
    <text
       xml:space="preserve"
       style="font-style:normal;font-weight:normal;font-size:42.39785767px;line-height:1.25;font-family:sans-serif;letter-spacing:0px;word-spacing:0px;fill:#000000;fill-opacity:1;stroke:none;stroke-width:0.26458329"
       x="105.76945"
       y="90.056572"
       id="text4549"
       transform="scale(1.0083819,0.99168777)"><tspan
         sodipodi:role="line"
         id="tspan4547"
         x="105.76945"
         y="90.056572"
         style="font-style:normal;font-variant:normal;font-weight:normal;font-stretch:normal;font-size:90.44876862px;font-family:'Tulpen One';-inkscape-font-specification:'Tulpen One';stroke-width:0.26458329">f</tspan></text>
    <path
       inkscape:connector-curvature="0"
       style="opacity:1;fill:#fefefe;fill-opacity:1;fill-rule:nonzero;stroke:none;stroke-width:0.09999998;stroke-linecap:round;stroke-linejoin:miter;stroke-miterlimit:4;stroke-dasharray:none;stroke-opacity:1"
       d="m 107.86908,46.108569 v 0.385967 h -3.67897 v 2.933741 h 3.67897 v 61.054153 h 3.2848 V 49.428277 h 6.48337 v -2.933741 h -6.48337 v -0.385967 z m 56.84346,0 c -0.11439,0.04152 -0.23436,0.07631 -0.34491,0.123183 -0.93434,0.379575 -1.72269,0.932977 -2.36505,1.662928 -0.64236,0.700761 -1.12413,1.54888 -1.44531,2.541615 -0.32118,0.963545 -0.4804,2.014681 -0.4804,3.153408 v 30.351549 c 0,1.167928 0.15922,2.246898 0.4804,3.239632 0.32118,0.963545 0.78903,1.811665 1.4022,2.541616 0.64236,0.70076 1.43071,1.240245 2.36506,1.619821 0.68299,0.289756 1.44294,0.471992 2.27266,0.556356 a 146.84232,141.36292 0 0 0 1.09014,-2.878305 c -1.39626,-0.0021 -2.47421,-0.468197 -3.23141,-1.400144 -0.72996,-0.934344 -1.09425,-2.073072 -1.09425,-3.416192 V 53.370037 c 0,-1.343121 0.36429,-2.481848 1.09425,-3.416192 0.75915,-0.934344 1.84017,-1.402205 3.24168,-1.402205 h 4.29077 v 24.124809 a 146.84232,141.36292 0 0 0 2.68943,-26.56788 z m -44.05327,0.385967 v 44.585001 h 3.2848 V 46.494536 Z m 8.18942,0 v 10.642751 h 3.2848 v -7.70901 h 8.18941 l -11.56249,39.548988 v 2.102272 h 9.2426 c 1.92708,0 3.41619,-0.276701 4.46733,-0.83147 1.08034,-0.583958 1.8826,-1.240918 2.40817,-1.970879 0.52557,-0.759152 0.84606,-1.51967 0.96285,-2.278831 0.1168,-0.759152 0.17656,-1.328521 0.17656,-1.708096 v -4.684945 h -3.2848 v 4.379054 c 0,0.963534 -0.16127,1.722013 -0.48245,2.276771 -0.32118,0.554768 -0.72927,0.978828 -1.22564,1.270812 -0.46718,0.262784 -0.99275,0.437967 -1.57671,0.525568 -0.55476,0.05834 -1.06641,0.0883 -1.53358,0.0883 h -5.60675 l 11.60766,-39.594156 v -2.057104 z m 21.59139,0 v 44.585001 h 3.2848 V 46.494536 Z"
       id="path829" />
    <text
       xml:space="preserve"
       style="font-style:normal;font-weight:normal;font-size:42.04543686px;line-height:1.25;font-family:sans-serif;letter-spacing:0px;word-spacing:0px;fill:#000000;fill-opacity:1;stroke:none;stroke-width:0.26458332"
       x="84.710342"
       y="90.834267"
       id="text842"><tspan
         sodipodi:role="line"
         id="tspan840"
         x="84.710342"
         y="90.834267"
         style="font-style:normal;font-variant:normal;font-weight:normal;font-stretch:normal;font-size:89.69693756px;font-family:'Tulpen One';-inkscape-font-specification:'Tulpen One';stroke-width:0.26458332">S</tspan></text>
    <text
       xml:space="preserve"
       style="font-style:normal;font-weight:normal;font-size:42.04543686px;line-height:1.25;font-family:sans-serif;letter-spacing:0px;word-spacing:0px;fill:#fefefe;fill-opacity:1;stroke:none;stroke-width:0.26458332"
       x="82.212219"
       y="92.79451"
       id="text821"><tspan
         sodipodi:role="line"
         id="tspan819"
         x="82.212219"
         y="92.79451"
         style="font-style:normal;font-variant:normal;font-weight:normal;font-stretch:normal;font-size:89.69693756px;font-family:'Tulpen One';-inkscape-font-specification:'Tulpen One';fill:#fefefe;fill-opacity:1;stroke-width:0.26458332">S</tspan></text>
    <text
       xml:space="preserve"
       style="font-style:normal;font-weight:normal;font-size:42.04543686px;line-height:1.25;font-family:sans-serif;letter-spacing:0px;word-spacing:0px;fill:#fefefe;fill-opacity:1;stroke:none;stroke-width:0.26458332"
       x="59.832504"
       y="84.412842"
       id="text825"><tspan
         sodipodi:role="line"
         id="tspan823"
         x="59.832504"
         y="84.412842"
         style="font-style:normal;font-variant:normal;font-weight:normal;font-stretch:normal;font-size:50.45452499px;font-family:'Tulpen One';-inkscape-font-specification:'Tulpen One';fill:#fefefe;fill-opacity:1;stroke-width:0.26458332">lo</tspan></text>
    <text
       id="text4553"
       y="91.114395"
       x="104.20192"
       style="font-style:normal;font-weight:normal;font-size:42.04543686px;line-height:1.25;font-family:sans-serif;letter-spacing:0px;word-spacing:0px;fill:#ffffff;fill-opacity:1;stroke:none;stroke-width:0.26458332"
       xml:space="preserve"><tspan
         style="font-style:normal;font-variant:normal;font-weight:normal;font-stretch:normal;font-size:89.69693756px;font-family:'Tulpen One';-inkscape-font-specification:'Tulpen One';fill:#ffffff;fill-opacity:1;stroke-width:0.26458332"
         y="91.114395"
         x="104.20192"
         id="tspan4551"
         sodipodi:role="line">f</tspan></text>
    <text
       xml:space="preserve"
       style="font-style:normal;font-weight:normal;font-size:89.14279938px;line-height:1.25;font-family:sans-serif;letter-spacing:0px;word-spacing:0px;fill:#000000;fill-opacity:1;stroke:none;stroke-width:0.26458335"
       x="159.76888"
       y="88.394615"
       id="text4634"><tspan
         sodipodi:role="line"
         id="tspan4632"
         x="159.76888"
         y="88.394615"
         style="font-style:normal;font-variant:normal;font-weight:normal;font-stretch:normal;font-family:'Tulpen One';-inkscape-font-specification:'Tulpen One';stroke-width:0.26458335">o</tspan></text>
    <path
       style="opacity:1;fill:#bb0000;fill-opacity:1;fill-rule:nonzero;stroke:none;stroke-width:0.09999997;stroke-linecap:round;stroke-linejoin:miter;stroke-miterlimit:4;stroke-dasharray:none;stroke-opacity:1"
       d="m 148.21335,46.494536 v 44.585392 h 3.28507 V 46.494536 Z"
       id="path4555"
       inkscape:connector-curvature="0" />
    <rect
       inkscape:export-ydpi="150"
       inkscape:export-xdpi="150"
       inkscape:export-filename="/home/tuyen/demosfizio2.png"
       y="148.40768"
       x="-0.64688152"
       height="154.60675"
       width="212.56783"
       id="rect917"
       style="opacity:1;fill:#000000;fill-opacity:1;fill-rule:nonzero;stroke:none;stroke-width:0.1;stroke-linecap:round;stroke-linejoin:miter;stroke-miterlimit:4;stroke-dasharray:none;stroke-opacity:1" />
    <path
       d="M 175.03064,188.33273 A 146.48853,135.43098 0 0 1 139.0984,277.18345 L 28.54211,188.33273 Z"
       sodipodi:end="0.71558499"
       sodipodi:start="0"
       sodipodi:ry="135.43098"
       sodipodi:rx="146.48853"
       sodipodi:cy="188.33273"
       sodipodi:cx="28.54211"
       sodipodi:type="arc"
       id="path919"
       style="opacity:1;fill:#ffffff;fill-opacity:1;fill-rule:nonzero;stroke:none;stroke-width:0.09999998;stroke-linecap:round;stroke-linejoin:miter;stroke-miterlimit:4;stroke-dasharray:none;stroke-opacity:1" />
    <text
       transform="scale(1.0083819,0.99168777)"
       id="text923"
       y="233.47276"
       x="106.47115"
       style="font-style:normal;font-weight:normal;font-size:42.39785767px;line-height:1.25;font-family:sans-serif;letter-spacing:0px;word-spacing:0px;fill:#ffffff;fill-opacity:1;stroke:none;stroke-width:0.26458329;"
       xml:space="preserve"><tspan
         style="font-style:normal;font-variant:normal;font-weight:normal;font-stretch:normal;font-size:90.44876862px;font-family:'Tulpen One';-inkscape-font-specification:'Tulpen One';stroke-width:0.26458329;fill:#ffffff;fill-opacity:1;"
         y="233.47276"
         x="106.47115"
         id="tspan921"
         sodipodi:role="line">f</tspan></text>
    <path
       id="path925"
       d="m 108.57666,188.33265 v 0.38597 h -3.67897 v 2.93374 h 3.67897 v 61.05415 h 3.2848 v -61.05415 h 6.48337 v -2.93374 h -6.48337 v -0.38597 z m 56.84346,0 c -0.11439,0.0415 -0.23436,0.0763 -0.34491,0.12318 -0.93434,0.37958 -1.72269,0.93298 -2.36505,1.66293 -0.64236,0.70076 -1.12413,1.54888 -1.44531,2.54161 -0.32118,0.96355 -0.4804,2.01469 -0.4804,3.15341 v 30.35155 c 0,1.16793 0.15922,2.2469 0.4804,3.23963 0.32118,0.96355 0.78903,1.81167 1.4022,2.54162 0.64236,0.70076 1.43071,1.24024 2.36506,1.61982 0.68299,0.28976 1.44294,0.47199 2.27266,0.55636 a 146.84232,141.36292 0 0 0 1.09014,-2.87831 c -1.39626,-0.002 -2.47421,-0.4682 -3.23141,-1.40014 -0.72996,-0.93435 -1.09425,-2.07307 -1.09425,-3.41619 v -30.834 c 0,-1.34312 0.36429,-2.48185 1.09425,-3.4162 0.75915,-0.93434 1.84017,-1.4022 3.24168,-1.4022 h 4.29077 v 24.12481 a 146.84232,141.36292 0 0 0 2.68943,-26.56788 z m -44.05327,0.38597 v 44.585 h 3.2848 v -44.585 z m 8.18942,0 v 10.64275 h 3.2848 v -7.70901 h 8.18941 l -11.56249,39.54898 v 2.10228 h 9.2426 c 1.92708,0 3.41619,-0.2767 4.46733,-0.83147 1.08034,-0.58396 1.8826,-1.24092 2.40817,-1.97088 0.52557,-0.75915 0.84606,-1.51967 0.96285,-2.27883 0.1168,-0.75916 0.17656,-1.32852 0.17656,-1.7081 v -4.68494 h -3.2848 v 4.37905 c 0,0.96353 -0.16127,1.72201 -0.48245,2.27677 -0.32118,0.55477 -0.72927,0.97883 -1.22564,1.27081 -0.46718,0.26279 -0.99275,0.43797 -1.57671,0.52557 -0.55476,0.0583 -1.06641,0.0883 -1.53358,0.0883 h -5.60675 l 11.60766,-39.59415 v -2.05711 z m 21.59139,0 v 44.585 h 3.2848 v -44.585 z"
       style="opacity:1;fill:#fefefe;fill-opacity:1;fill-rule:nonzero;stroke:none;stroke-width:0.09999998;stroke-linecap:round;stroke-linejoin:miter;stroke-miterlimit:4;stroke-dasharray:none;stroke-opacity:1"
       inkscape:connector-curvature="0" />
    <text
       id="text929"
       y="233.05835"
       x="85.417923"
       style="font-style:normal;font-weight:normal;font-size:42.04543686px;line-height:1.25;font-family:sans-serif;letter-spacing:0px;word-spacing:0px;fill:#ffffff;fill-opacity:1;stroke:none;stroke-width:0.26458332;"
       xml:space="preserve"><tspan
         style="font-style:normal;font-variant:normal;font-weight:normal;font-stretch:normal;font-size:89.69693756px;font-family:'Tulpen One';-inkscape-font-specification:'Tulpen One';stroke-width:0.26458332;fill:#ffffff;fill-opacity:1;"
         y="233.05835"
         x="85.417923"
         id="tspan927"
         sodipodi:role="line">S</tspan></text>
    <text
       id="text933"
       y="235.01859"
       x="82.9198"
       style="font-style:normal;font-weight:normal;font-size:42.04543686px;line-height:1.25;font-family:sans-serif;letter-spacing:0px;word-spacing:0px;fill:#000000;fill-opacity:1;stroke:none;stroke-width:0.26458332;"
       xml:space="preserve"><tspan
         style="font-style:normal;font-variant:normal;font-weight:normal;font-stretch:normal;font-size:89.69693756px;font-family:'Tulpen One';-inkscape-font-specification:'Tulpen One';fill:#000000;fill-opacity:1;stroke-width:0.26458332;"
         y="235.01859"
         x="82.9198"
         id="tspan931"
         sodipodi:role="line">S</tspan></text>
    <text
       id="text937"
       y="226.63692"
       x="60.540089"
       style="font-style:normal;font-weight:normal;font-size:42.04543686px;line-height:1.25;font-family:sans-serif;letter-spacing:0px;word-spacing:0px;fill:#000000;fill-opacity:1;stroke:none;stroke-width:0.26458332;"
       xml:space="preserve"><tspan
         style="font-style:normal;font-variant:normal;font-weight:normal;font-stretch:normal;font-size:50.45452499px;font-family:'Tulpen One';-inkscape-font-specification:'Tulpen One';fill:#000000;fill-opacity:1;stroke-width:0.26458332;"
         y="226.63692"
         x="60.540089"
         id="tspan935"
         sodipodi:role="line">lo</tspan></text>
    <text
       xml:space="preserve"
       style="font-style:normal;font-weight:normal;font-size:42.04543686px;line-height:1.25;font-family:sans-serif;letter-spacing:0px;word-spacing:0px;fill:#000000;fill-opacity:1;stroke:none;stroke-width:0.26458332;"
       x="104.9095"
       y="233.33847"
       id="text941"><tspan
         sodipodi:role="line"
         id="tspan939"
         x="104.9095"
         y="233.33847"
         style="font-style:normal;font-variant:normal;font-weight:normal;font-stretch:normal;font-size:89.69693756px;font-family:'Tulpen One';-inkscape-font-specification:'Tulpen One';fill:#000000;fill-opacity:1;stroke-width:0.26458332;">f</tspan></text>
    <text
       id="text945"
       y="230.6187"
       x="160.47646"
       style="font-style:normal;font-weight:normal;font-size:89.14279938px;line-height:1.25;font-family:sans-serif;letter-spacing:0px;word-spacing:0px;fill:#fbfbfb;fill-opacity:1;stroke:none;stroke-width:0.26458335;"
       xml:space="preserve"><tspan
         style="font-style:normal;font-variant:normal;font-weight:normal;font-stretch:normal;font-family:'Tulpen One';-inkscape-font-specification:'Tulpen One';stroke-width:0.26458335;fill:#fbfbfb;fill-opacity:1;"
         y="230.6187"
         x="160.47646"
         id="tspan943"
         sodipodi:role="line">o</tspan></text>
    <path
       style="opacity:1;fill:#000000;fill-opacity:1;fill-rule:nonzero;stroke:none;stroke-width:0.09999998;stroke-linecap:round;stroke-linejoin:miter;stroke-miterlimit:4;stroke-dasharray:none;stroke-opacity:1"
       d="m 108.57666,188.33265 v 0.38597 h -3.67897 v 2.93374 h 3.67897 v 61.05415 h 3.2848 v -61.05415 h 6.48337 v -2.93374 h -6.48337 v -0.38597 z m 56.84346,0 c -0.11439,0.0415 -0.23436,0.0763 -0.34491,0.12318 -0.93434,0.37958 -1.72269,0.93298 -2.36505,1.66293 -0.64236,0.70076 -1.12413,1.54888 -1.44531,2.54161 -0.32118,0.96355 -0.4804,2.01469 -0.4804,3.15341 v 30.35155 c 0,1.16793 0.15922,2.2469 0.4804,3.23963 0.32118,0.96355 0.78903,1.81167 1.4022,2.54162 0.64236,0.70076 1.43071,1.24024 2.36506,1.61982 0.68299,0.28976 1.44294,0.47199 2.27266,0.55636 a 146.84232,141.36292 0 0 0 1.09014,-2.87831 c -1.39626,-0.002 -2.47421,-0.4682 -3.23141,-1.40014 -0.72996,-0.93435 -1.09425,-2.07307 -1.09425,-3.41619 v -30.834 c 0,-1.34312 0.36429,-2.48185 1.09425,-3.4162 0.75915,-0.93434 1.84017,-1.4022 3.24168,-1.4022 h 4.29077 v 24.12481 a 146.84232,141.36292 0 0 0 2.68943,-26.56788 z m -44.05327,0.38597 v 44.585 h 3.2848 v -44.585 z m 8.18942,0 v 10.64275 h 3.2848 v -7.70901 h 8.18941 l -11.56249,39.54898 v 2.10228 h 9.2426 c 1.92708,0 3.41619,-0.2767 4.46733,-0.83147 1.08034,-0.58396 1.8826,-1.24092 2.40817,-1.97088 0.52557,-0.75915 0.84606,-1.51967 0.96285,-2.27883 0.1168,-0.75916 0.17656,-1.32852 0.17656,-1.7081 v -4.68494 h -3.2848 v 4.37905 c 0,0.96353 -0.16127,1.72201 -0.48245,2.27677 -0.32118,0.55477 -0.72927,0.97883 -1.22564,1.27081 -0.46718,0.26279 -0.99275,0.43797 -1.57671,0.52557 -0.55476,0.0583 -1.06641,0.0883 -1.53358,0.0883 h -5.60675 l 11.60766,-39.59415 v -2.05711 z m 21.59139,0 v 44.585 h 3.2848 v -44.585 z"
       id="path947"
       inkscape:connector-curvature="0"
       inkscape:export-filename="/home/tuyen/demosfizio1.png"
       inkscape:export-xdpi="150"
       inkscape:export-ydpi="150" />
    <path
       sodipodi:nodetypes="cccccscccccsccccs"
       inkscape:connector-curvature="0"
       d="m 62.199208,188.45821 0.06589,9.04519 1.8477,1.54797 v -10.59316 z m 9.427565,12.60715 c -0.706232,0 -1.330344,0.11497 -1.872336,0.3449 -0.525568,0.21352 -0.969016,0.52557 -1.330344,0.93617 -0.05434,0.0593 -0.09141,0.13409 -0.141658,0.19709 l 1.389882,1.16405 c 0.04411,-0.0678 0.08113,-0.13892 0.131392,-0.20325 0.427024,-0.52556 1.034712,-0.78835 1.823064,-0.78835 H 74.0411 v 4.6521 l 1.8477,1.54796 v -7.85067 z"
       style="opacity:1;fill:#00831b;fill-opacity:1;fill-rule:nonzero;stroke:#00831b;stroke-width:0.10000002;stroke-linecap:round;stroke-linejoin:miter;stroke-miterlimit:4;stroke-dasharray:none;stroke-opacity:1"
       id="path949" />
    <path
       id="path951"
       d="m 62.265093,210.27101 v 11.34282 l 1.8477,1.54796 v -11.34282 z m 5.075016,4.25176 v 8.09909 c 0,0.65696 0.09034,1.26464 0.270995,1.82306 0.180664,0.54199 0.443448,1.01828 0.788352,1.42889 0.361328,0.39418 0.804776,0.69802 1.330344,0.91153 0.541992,0.22994 1.166104,0.3449 1.872336,0.3449 0.706232,0 1.322132,-0.12318 1.8477,-0.36953 0.541992,-0.24637 0.993652,-0.59127 1.35498,-1.03472 0.361328,-0.44344 0.632324,-0.96901 0.812988,-1.57671 0.180664,-0.60768 0.270996,-1.27285 0.270996,-1.9955 v -0.47015 l -1.8477,-1.54796 v 2.26446 c 0,0.85405 -0.213512,1.58491 -0.640536,2.19261 -0.4106,0.59126 -1.001864,0.88689 -1.773791,0.88689 -0.788352,0 -1.39604,-0.26278 -1.823064,-0.78835 -0.4106,-0.52557 -0.615901,-1.16611 -0.615901,-1.92161 v -6.69893 z"
       style="opacity:1;fill:#bb0000;fill-opacity:1;fill-rule:nonzero;stroke:#bb0000;stroke-width:0.10000002;stroke-linecap:round;stroke-linejoin:miter;stroke-miterlimit:4;stroke-dasharray:none;stroke-opacity:1"
       inkscape:connector-curvature="0" />
    <path
       style="opacity:1;fill:#00831b;fill-opacity:1;fill-rule:nonzero;stroke:none;stroke-width:0.10000001;stroke-linecap:round;stroke-linejoin:miter;stroke-miterlimit:4;stroke-dasharray:none;stroke-opacity:1"
       d="m 118.69559,46.494536 v 44.585392 h 3.28455 V 46.494536 Z"
       id="rect941"
       inkscape:connector-curvature="0" />
  </g>
</svg>
